<?xml version="1.0" encoding="utf-8"?>
<!-- Generator: Adobe Illustrator 16.0.0, SVG Export Plug-In . SVG Version: 6.00 Build 0)  -->
<!DOCTYPE svg PUBLIC "-//W3C//DTD SVG 1.1//EN" "http://www.w3.org/Graphics/SVG/1.1/DTD/svg11.dtd">
<svg version="1.1" id="Layer_1" xmlns="http://www.w3.org/2000/svg" xmlns:xlink="http://www.w3.org/1999/xlink" x="0px" y="0px"
	 width="40px" height="40px" viewBox="0 0 40 40" enable-background="new 0 0 40 40" xml:space="preserve">
<path fill="#1B181C" d="M33.545,8.734c-1.591-1.809-3.798-2.802-6.214-2.802c-3.4,0-5.553,2.021-6.757,3.729
	c-0.2,0.279-0.394,0.582-0.575,0.896c-0.182-0.313-0.375-0.607-0.575-0.896c-1.2-1.69-3.354-3.729-6.757-3.729
	c-2.416,0-4.623,0.993-6.214,2.802c-1.513,1.72-2.345,4.015-2.345,6.466c0,2.661,1.035,5.139,3.257,7.775
	c1.965,2.338,4.776,4.729,8.032,7.506c1.209,1.031,2.461,2.104,3.834,3.303c0.211,0.189,0.481,0.285,0.768,0.285
	c0.282,0,0.557-0.105,0.811-0.318c1.299-1.141,2.521-2.184,3.703-3.188l0.09-0.076c3.256-2.771,6.063-5.168,8.029-7.506
	c2.225-2.646,3.26-5.112,3.26-7.775C35.89,12.748,35.056,10.453,33.545,8.734z"/>
</svg>
